<svg class="" width="80" height="31" viewBox="0 0 80 31" fill="#f43e01" xmlns="http://www.w3.org/2000/svg"><path d="M69.5025 0.0146549C66.7625 0.0146549 64.1876 1.08284 62.2514 3.02371C60.3187 4.96102 59.2565 7.53551 59.2618 10.27C59.2618 15.9202 63.8555 20.5164 69.5025 20.5164H72.4069V15.0866H69.5025C66.8477 15.0866 64.6886 12.9262 64.6886 10.27C64.6886 7.61372 66.8477 5.45335 69.5025 5.45335C70.7087 5.45335 71.8633 5.90391 72.7541 6.72149C73.6139 7.51152 74.2898 8.56904 74.2898 9.73499V29.3587H79.7166V10.27C79.7166 4.61533 75.1345 0.0146549 69.5025 0.0146549Z" fill="#f43e01"></path><path d="M47.5024 0.0146549H47.5006C41.6505 0.0146549 36.8908 4.77433 36.8908 10.6244C36.8908 16.4745 41.6505 21.2341 47.5006 21.2341C53.3506 21.2341 58.1103 16.4745 58.1103 10.6226C58.1002 4.78352 53.3415 0.0247681 47.5024 0.0146549ZM52.4837 10.6244C52.4837 13.3724 50.2486 15.6075 47.5006 15.6075C44.7525 15.6075 42.5175 13.3724 42.5175 10.6244C42.5175 7.87634 44.7525 5.64131 47.5006 5.64131C50.2486 5.64131 52.4837 7.87634 52.4837 10.6244Z" fill="#f43e01"></path><path d="M22.4622 9.64636C22.4853 9.01981 22.5387 8.41195 22.6579 7.7952L22.6606 7.78274C22.8118 7.05562 23.0421 6.35609 23.3445 5.70195C23.9742 4.36252 24.9036 3.1824 26.0349 2.28441C27.144 1.40955 28.4425 0.75808 29.7917 0.398526C30.4534 0.214299 31.1382 0.0959314 31.8293 0.0460922C33.3572 -0.063376 34.8683 0.107501 36.3074 0.645942C36.8401 0.845299 37.372 1.09805 37.8691 1.38641L38.7114 1.8759L36.0103 6.57503L35.1672 6.10511C34.5828 5.77938 33.9514 5.58002 33.2905 5.51238C32.5986 5.45008 31.8835 5.51238 31.2129 5.69572C30.5779 5.86571 29.9722 6.17275 29.4591 6.58392C28.9788 6.97107 28.591 7.46501 28.3402 8.00968C28.0689 8.59707 27.9675 9.24409 27.9675 9.88666V20.5173H22.4622V9.64636Z" fill="#f43e01"></path><path d="M20.5477 10.0045C20.4812 7.31605 19.3855 4.80024 17.463 2.92073C15.5422 1.04299 13.0066 0.00533953 10.3238 0H10.2368C4.63331 0 0.0491996 4.54483 0.000404162 10.1727C-0.02355 12.9137 1.01801 15.5007 2.93346 17.4576C4.84979 19.4154 7.40933 20.5065 10.1499 20.5305H13.2728V15.0931H10.3078C9.02224 15.1109 7.80768 14.6196 6.88855 13.7199C5.96853 12.8193 5.45396 11.6126 5.43977 10.3213C5.41049 7.65956 7.54152 5.46946 10.1924 5.43743H10.3202C12.9667 5.43743 15.1314 7.6035 15.1465 10.2608V19.7523C15.1465 22.3794 13.0084 24.5419 10.3796 24.5757C9.12072 24.5659 7.93721 24.0658 7.04736 23.1652L6.35712 22.4675L6.35446 22.4702L3.58022 27.3701C5.43178 29.06 7.80324 29.9944 10.3202 30.0131H10.4586C13.1566 29.9749 15.6877 28.8954 17.5863 26.9723C19.4831 25.05 20.5362 22.5004 20.5504 19.7879V10.0054L20.5477 10.0045Z" fill="#f43e01"></path></svg>